<svg width="50" height="50" viewBox="0 0 50 50" fill="none" xmlns="http://www.w3.org/2000/svg">
<path d="M16.25 4.16669H33.75C40.4167 4.16669 45.8333 9.58335 45.8333 16.25V33.75C45.8333 36.9547 44.5603 40.0282 42.2942 42.2942C40.0281 44.5603 36.9547 45.8334 33.75 45.8334H16.25C9.58332 45.8334 4.16666 40.4167 4.16666 33.75V16.25C4.16666 13.0453 5.43972 9.97188 7.70578 7.70581C9.97185 5.43975 13.0453 4.16669 16.25 4.16669ZM15.8333 8.33335C13.8442 8.33335 11.9365 9.12353 10.53 10.5301C9.1235 11.9366 8.33332 13.8442 8.33332 15.8334V34.1667C8.33332 38.3125 11.6875 41.6667 15.8333 41.6667H34.1667C36.1558 41.6667 38.0634 40.8765 39.47 39.47C40.8765 38.0635 41.6667 36.1558 41.6667 34.1667V15.8334C41.6667 11.6875 38.3125 8.33335 34.1667 8.33335H15.8333ZM35.9375 11.4584C36.6282 11.4584 37.2905 11.7327 37.7789 12.2211C38.2673 12.7095 38.5417 13.3719 38.5417 14.0625C38.5417 14.7532 38.2673 15.4156 37.7789 15.9039C37.2905 16.3923 36.6282 16.6667 35.9375 16.6667C35.2468 16.6667 34.5844 16.3923 34.0961 15.9039C33.6077 15.4156 33.3333 14.7532 33.3333 14.0625C33.3333 13.3719 33.6077 12.7095 34.0961 12.2211C34.5844 11.7327 35.2468 11.4584 35.9375 11.4584ZM25 14.5834C27.7627 14.5834 30.4122 15.6808 32.3657 17.6343C34.3192 19.5878 35.4167 22.2373 35.4167 25C35.4167 27.7627 34.3192 30.4122 32.3657 32.3657C30.4122 34.3192 27.7627 35.4167 25 35.4167C22.2373 35.4167 19.5878 34.3192 17.6343 32.3657C15.6808 30.4122 14.5833 27.7627 14.5833 25C14.5833 22.2373 15.6808 19.5878 17.6343 17.6343C19.5878 15.6808 22.2373 14.5834 25 14.5834ZM25 18.75C23.3424 18.75 21.7527 19.4085 20.5806 20.5806C19.4085 21.7527 18.75 23.3424 18.75 25C18.75 26.6576 19.4085 28.2473 20.5806 29.4194C21.7527 30.5915 23.3424 31.25 25 31.25C26.6576 31.25 28.2473 30.5915 29.4194 29.4194C30.5915 28.2473 31.25 26.6576 31.25 25C31.25 23.3424 30.5915 21.7527 29.4194 20.5806C28.2473 19.4085 26.6576 18.75 25 18.75Z" fill="white"/>
</svg>
