<svg width="100" height="100" viewBox="0 0 100 100" fill="none" xmlns="http://www.w3.org/2000/svg">
<path d="M98.8731 63.0793L88.4615 53.7448V41.3793C88.4496 32.8339 84.9039 24.596 78.5101 18.2586C72.1163 11.9211 63.3286 7.93425 53.8462 7.06897V0H46.1538V7.06897C36.6714 7.93425 27.8837 11.9211 21.4899 18.2586C15.0961 24.596 11.5504 32.8339 11.5385 41.3793V53.7448L1.12692 63.0793C0.405579 63.7258 0.000217836 64.6028 0 65.5172V75.8621C0 76.7766 0.405218 77.6537 1.12651 78.3004C1.84781 78.947 2.82609 79.3103 3.84615 79.3103H30.7692V82.7586C30.7692 87.3313 32.7953 91.7167 36.4018 94.9501C40.0083 98.1835 44.8997 100 50 100C55.1003 100 59.9917 98.1835 63.5982 94.9501C67.2047 91.7167 69.2308 87.3313 69.2308 82.7586V79.3103H96.1538C97.1739 79.3103 98.1522 78.947 98.8735 78.3004C99.5948 77.6537 100 76.7766 100 75.8621V65.5172C99.9998 64.6028 99.5944 63.7258 98.8731 63.0793ZM61.5385 82.7586C61.5385 85.5022 60.3228 88.1335 58.1589 90.0735C55.995 92.0135 53.0602 93.1034 50 93.1034C46.9398 93.1034 44.005 92.0135 41.8411 90.0735C39.6772 88.1335 38.4615 85.5022 38.4615 82.7586V79.3103H61.5385V82.7586Z" fill="#F3FFF4"/>
</svg>
