<svg width="100" height="100" viewBox="0 0 100 100" fill="none" xmlns="http://www.w3.org/2000/svg">
<path d="M50 0C56.6304 0 62.9893 2.63392 67.6777 7.32233C72.3661 12.0107 75 18.3696 75 25C75 31.6304 72.3661 37.9893 67.6777 42.6777C62.9893 47.3661 56.6304 50 50 50C43.3696 50 37.0107 47.3661 32.3223 42.6777C27.6339 37.9893 25 31.6304 25 25C25 18.3696 27.6339 12.0107 32.3223 7.32233C37.0107 2.63392 43.3696 0 50 0ZM50 62.5C77.625 62.5 100 73.6875 100 87.5V100H0V87.5C0 73.6875 22.375 62.5 50 62.5Z" fill="white"/>
</svg>
